<svg width="176" height="45" viewBox="0 0 176 45" fill="none" xmlns="http://www.w3.org/2000/svg">
<path d="M30.2253 8C30.4649 8 30.6592 8.19428 30.6592 8.43393V10.3864C30.6592 10.626 30.4649 10.8203 30.2253 10.8203H25.7777C25.538 10.8203 25.3438 11.0146 25.3438 11.2542V18.7936C25.3438 19.0333 25.1495 19.2275 24.9098 19.2275H22.9574C22.7177 19.2275 22.5234 19.0333 22.5234 18.7936V8.43393C22.5234 8.19428 22.7177 8 22.9574 8H30.2253Z" fill="white"/>
<rect x="27.1406" y="15.1599" width="2.82053" height="3.52566" rx="0.433927" transform="rotate(-90 27.1406 15.1599)" fill="white"/>
<path d="M36.5466 15.1536C36.5464 15.1538 36.5464 15.1541 36.5465 15.1543L39.4392 19.0858C39.5812 19.2788 39.5399 19.5504 39.3468 19.6925L37.7742 20.8496C37.5812 20.9916 37.3096 20.9502 37.1675 20.7572L34.5317 17.1748C34.3897 16.9818 34.1181 16.9405 33.925 17.0825L27.8531 21.55C27.6601 21.6921 27.3885 21.6507 27.2464 21.4577L26.0893 19.8851C25.9473 19.692 25.9886 19.4204 26.1817 19.2784L32.6027 14.5539C32.6029 14.5538 32.603 14.5535 32.6028 14.5533C32.6027 14.553 32.6027 14.5527 32.6029 14.5526L34.8737 12.8818C34.874 12.8816 34.8745 12.8815 34.8749 12.8815C34.8753 12.8816 34.8757 12.8818 34.876 12.8822L36.5467 15.1529C36.5469 15.1531 36.5468 15.1534 36.5466 15.1536Z" fill="white"/>
<rect x="31.8438" y="20.8384" width="2.82053" height="3.52566" rx="0.433927" transform="rotate(-36.3446 31.8438 20.8384)" fill="white"/>
<path d="M16.8894 10.4494C17.0978 10.5677 17.1708 10.8326 17.0525 11.041L14.8572 14.9068C14.7389 15.1152 14.8119 15.3801 15.0203 15.4984L21.5789 19.2228C21.7873 19.3411 21.8604 19.606 21.742 19.8144L20.7779 21.5122C20.6596 21.7206 20.3947 21.7936 20.1863 21.6752L13.2512 17.7371C13.2507 17.7369 13.2501 17.737 13.2498 17.7375C13.2496 17.738 13.249 17.7381 13.2485 17.7379L11.1742 16.56C10.9658 16.4416 10.8928 16.1768 11.0111 15.9684L14.6 9.64835C14.7183 9.43996 14.9832 9.36695 15.1916 9.48529L16.8894 10.4494Z" fill="white"/>
<rect x="19.3047" y="15.8723" width="2.82053" height="3.52566" rx="0.433927" transform="rotate(-150.41 19.3047 15.8723)" fill="white"/>
<path d="M30.9768 34.2527C30.771 34.1299 30.7037 33.8635 30.8265 33.6577L33.1047 29.8391C33.2274 29.6333 33.1601 29.3669 32.9543 29.2441L26.4797 25.3814C26.2738 25.2586 26.2065 24.9922 26.3293 24.7864L27.3301 23.1088C27.4529 22.903 27.7193 22.8357 27.9251 22.9585L36.8227 28.2667C37.0285 28.3895 37.0958 28.6559 36.973 28.8617L33.2494 35.1032C33.1266 35.309 32.8602 35.3763 32.6544 35.2535L30.9768 34.2527Z" fill="white"/>
<rect x="28.6719" y="28.7795" width="2.82053" height="3.52566" rx="0.433927" transform="rotate(30.8199 28.6719 28.7795)" fill="white"/>
<path d="M10.9192 28.9698C10.9194 28.9696 10.9194 28.9693 10.9193 28.9691L8.23771 24.8907C8.10604 24.6904 8.16164 24.4214 8.36188 24.2897L9.99329 23.217C10.1935 23.0854 10.4626 23.141 10.5943 23.3412L13.0377 27.0575C13.1694 27.2577 13.4385 27.3133 13.6387 27.1816L19.9383 23.0396C20.1386 22.9079 20.4076 22.9635 20.5393 23.1637L21.612 24.7951C21.7436 24.9954 21.688 25.2644 21.4878 25.3961L14.826 29.7763C14.8258 29.7765 14.8257 29.7768 14.8258 29.777C14.826 29.7772 14.8259 29.7775 14.8257 29.7777L12.47 31.3266C12.4697 31.3267 12.4694 31.3267 12.4693 31.3264C12.4691 31.3262 12.4688 31.3262 12.4686 31.3263C12.4684 31.3265 12.4681 31.3264 12.4679 31.3262L10.919 28.9704C10.9189 28.9702 10.9189 28.9699 10.9192 28.9698Z" fill="white"/>
<rect x="15.9219" y="23.5405" width="2.82053" height="3.52566" rx="0.433927" transform="rotate(146.675 15.9219 23.5405)" fill="white"/>
<path d="M17.9871 36.9893C17.7475 36.9952 17.5485 36.8058 17.5425 36.5662L17.4942 34.6144C17.4883 34.3748 17.6777 34.1758 17.9172 34.1698L22.3644 34.0597C22.604 34.0538 22.7934 33.8547 22.7875 33.6152L22.6008 26.0781C22.5949 25.8385 22.7843 25.6395 23.0239 25.6336L24.9757 25.5852C25.2153 25.5793 25.4143 25.7687 25.4203 26.0083L25.6768 36.3648C25.6827 36.6044 25.4933 36.8034 25.2537 36.8093L17.9871 36.9893Z" fill="white"/>
<rect x="20.8984" y="29.7551" width="2.82053" height="3.52566" rx="0.433927" transform="rotate(88.5814 20.8984 29.7551)" fill="white"/>
<path d="M23.7355 19.6077L24.3491 21.706L26.4475 22.3197L24.3491 22.9334L23.7355 25.0318L23.1218 22.9334L21.0234 22.3197L23.1218 21.706L23.7355 19.6077Z" fill="white"/>
<path d="M52.0469 36.5V8.31641H70.5039V13.1797H57.9453V20.7383H69.4102V25.4062H57.9453V36.5H52.0469ZM74 36.5V8.31641H79.8984V36.5H74ZM84.5859 36.5V8.31641H89.7422L105.074 30.3672L100.133 26.6367H102.594V8.31641H108.473V36.5H103.355L88.0039 14.3125L92.9453 18.043H90.4648V36.5H84.5859ZM113.18 36.5V8.31641H119.078V36.5H113.18ZM122.262 36.5L132.574 20.1523L131.227 24.9375V22.2422L122.32 8.31641H129.254L135.25 18.4727H137.965L134.137 20.7578L141.422 8.31641H148.004L138.766 22.3398V25.0547L137.379 20.2695L147.887 36.5H141.168L134.977 26.6172H132.262L136.168 24.4102L128.629 36.5H122.262ZM159.195 36.5V25.9727L149.391 8.31641H155.758L162.086 20.3477H162.223L168.531 8.31641H174.918L165.094 25.9727V36.5H159.195Z" fill="white"/>
</svg>
